<svg xmlns="http://www.w3.org/2000/svg" viewBox="0 0 800 600" width="800" height="600"><defs>
<linearGradient id="w" x1="0" y1="0" x2="0" y2="1"><stop offset="0" stop-color="#F0E7D6"/><stop offset="1" stop-color="#E4D8C1"/></linearGradient>
<linearGradient id="s" x1="0" y1="0" x2="0" y2="1"><stop offset="0" stop-color="#C8DDE9"/><stop offset="1" stop-color="#E9F0EC"/></linearGradient>
<filter id="sf" x="-20%" y="-20%" width="140%" height="140%"><feDropShadow dx="0" dy="5" stdDeviation="8" flood-color="#000" flood-opacity="0.12"/></filter>
</defs><rect width="800" height="600" fill="url(#w)"/><rect x="0" y="490" width="800" height="110" fill="#C9B79A"/><rect x="0" y="490" width="800" height="3" fill="#00000018"/><path d="M 246 444 L 246 210.0 A 154.0 154.0 0 0 1 554 210.0 L 554 444 Z" fill="#F6F2EA" filter="url(#sf)" stroke="#D2C8B6" stroke-width="2"/><path d="M 260 430 L 260 210.0 A 140.0 140.0 0 0 1 540 210.0 L 540 430 Z" fill="url(#s)"/><rect x="260" y="70" width="280" height="251.99999999999997" fill="#D8B98C"/><rect x="256" y="60" width="288" height="16" rx="8" fill="#C29A6A"/><rect x="650" y="434" width="46" height="56" rx="6" fill="#B79E7C"/><path d="M673 434 q-30 -60 -8 -110 q18 40 8 110" fill="#8CA07A"/><path d="M673 434 q30 -66 14 -116 q-24 44 -14 116" fill="#9CB089"/></svg>