<svg xmlns="http://www.w3.org/2000/svg" viewBox="0 0 800 600" width="800" height="600"><defs>
<linearGradient id="w" x1="0" y1="0" x2="0" y2="1"><stop offset="0" stop-color="#E4E7EA"/><stop offset="1" stop-color="#D3D8DD"/></linearGradient>
<linearGradient id="s" x1="0" y1="0" x2="0" y2="1"><stop offset="0" stop-color="#C8DDE9"/><stop offset="1" stop-color="#E9F0EC"/></linearGradient>
<filter id="sf" x="-20%" y="-20%" width="140%" height="140%"><feDropShadow dx="0" dy="5" stdDeviation="8" flood-color="#000" flood-opacity="0.12"/></filter>
</defs><rect width="800" height="600" fill="url(#w)"/><rect x="0" y="490" width="800" height="110" fill="#B9BBBE"/><rect x="0" y="490" width="800" height="3" fill="#00000018"/><rect x="266" y="66" width="268" height="388" rx="4" fill="#F6F2EA" filter="url(#sf)" stroke="#D2C8B6" stroke-width="2"/><rect x="280" y="80" width="240" height="360" fill="url(#s)"/><rect x="280.0" y="80" width="24.0" height="360" fill="#C7CDD2"/><rect x="306.7" y="80" width="24.0" height="360" fill="#AFB6BD"/><rect x="333.3" y="80" width="24.0" height="360" fill="#C7CDD2"/><rect x="360.0" y="80" width="24.0" height="360" fill="#AFB6BD"/><rect x="386.7" y="80" width="24.0" height="360" fill="#C7CDD2"/><rect x="413.3" y="80" width="24.0" height="360" fill="#AFB6BD"/><rect x="440.0" y="80" width="24.0" height="360" fill="#C7CDD2"/><rect x="466.7" y="80" width="24.0" height="360" fill="#AFB6BD"/><rect x="493.3" y="80" width="24.0" height="360" fill="#C7CDD2"/><rect x="280" y="75" width="240" height="9" fill="#AFB6BD"/><rect x="80" y="420" width="120" height="12" rx="3" fill="#A98C64"/><rect x="88" y="432" width="8" height="46" fill="#987A52"/><rect x="184" y="432" width="8" height="46" fill="#987A52"/></svg>