<svg xmlns="http://www.w3.org/2000/svg" viewBox="0 0 800 600" width="800" height="600"><defs>
<linearGradient id="w" x1="0" y1="0" x2="0" y2="1"><stop offset="0" stop-color="#EDE7DC"/><stop offset="1" stop-color="#E1D8C8"/></linearGradient>
<linearGradient id="s" x1="0" y1="0" x2="0" y2="1"><stop offset="0" stop-color="#C8DDE9"/><stop offset="1" stop-color="#E9F0EC"/></linearGradient>
<filter id="sf" x="-20%" y="-20%" width="140%" height="140%"><feDropShadow dx="0" dy="5" stdDeviation="8" flood-color="#000" flood-opacity="0.12"/></filter>
</defs><rect width="800" height="600" fill="url(#w)"/><rect x="0" y="490" width="800" height="110" fill="#C9B79A"/><rect x="0" y="490" width="800" height="3" fill="#00000018"/><rect x="196" y="66" width="408" height="388" rx="3" fill="#F6F2EA" filter="url(#sf)" stroke="#D2C8B6" stroke-width="2"/><rect x="210" y="80" width="380" height="360" fill="url(#s)"/><rect x="396.0" y="80" width="8" height="360" fill="#EDE7DB"/><rect x="210.0" y="80" width="38.0" height="360" fill="#5B5852"/><rect x="252.2" y="80" width="38.0" height="360" fill="#494640"/><rect x="294.4" y="80" width="38.0" height="360" fill="#5B5852"/><rect x="336.7" y="80" width="38.0" height="360" fill="#494640"/><rect x="378.9" y="80" width="38.0" height="360" fill="#5B5852"/><rect x="421.1" y="80" width="38.0" height="360" fill="#494640"/><rect x="463.3" y="80" width="38.0" height="360" fill="#5B5852"/><rect x="505.6" y="80" width="38.0" height="360" fill="#494640"/><rect x="547.8" y="80" width="38.0" height="360" fill="#5B5852"/><rect x="210" y="75" width="380" height="9" fill="#494640"/><rect x="90" y="420" width="200" height="70" rx="14" fill="#B8AA90"/><rect x="90" y="392" width="200" height="40" rx="14" fill="#C6B99F"/><rect x="106" y="380" width="52" height="44" rx="8" fill="#D2C7AF"/><rect x="164" y="380" width="52" height="44" rx="8" fill="#DACFB8"/><rect x="670" y="434" width="46" height="56" rx="6" fill="#B79E7C"/><path d="M693 434 q-30 -60 -8 -110 q18 40 8 110" fill="#8CA07A"/><path d="M693 434 q30 -66 14 -116 q-24 44 -14 116" fill="#9CB089"/></svg>