<svg xmlns="http://www.w3.org/2000/svg" viewBox="0 0 800 1000" width="800" height="1000">
<defs>
  <linearGradient id="wall" x1="0" y1="0" x2="0" y2="1">
    <stop offset="0" stop-color="#EDE7DC"/><stop offset="1" stop-color="#E3DBCC"/>
  </linearGradient>
  <linearGradient id="sky" x1="0" y1="0" x2="0" y2="1">
    <stop offset="0" stop-color="#CFE3EE"/><stop offset="1" stop-color="#EAF1F3"/>
  </linearGradient>
  <linearGradient id="gold" x1="0" y1="0" x2="1" y2="1">
    <stop offset="0" stop-color="#CFA968"/><stop offset="1" stop-color="#B8935A"/>
  </linearGradient>
  <filter id="soft" x="-20%" y="-20%" width="140%" height="140%">
    <feDropShadow dx="0" dy="6" stdDeviation="10" flood-color="#000" flood-opacity="0.12"/>
  </filter>
</defs>
<rect width="800" height="1000" fill="url(#wall)"/>
<rect x="0" y="850" width="800" height="150" fill="#C9B79A"/>
<rect x="0" y="850" width="800" height="4" fill="#B8A585"/><rect x="122" y="132" width="556" height="596" rx="6" fill="#F7F3EC" filter="url(#soft)"/><rect x="122" y="132" width="556" height="596" rx="6" fill="none" stroke="#D8CEBD" stroke-width="2"/><rect x="140" y="150" width="520" height="560" fill="url(#sky)"/><circle cx="514.4" cy="306.8" r="52.0" fill="#FBF3DE" opacity="0.7"/><rect x="140" y="530.8" width="520" height="179.20000000000002" fill="#D5E0D2" opacity="0.5"/><rect x="140" y="150.0" width="520" height="17.7" fill="#B9C0C6"/><rect x="140" y="150.0" width="520" height="1.5" fill="#ffffff" opacity="0.25"/><rect x="140" y="171.5" width="520" height="17.7" fill="#A2AAB1"/><rect x="140" y="171.5" width="520" height="1.5" fill="#ffffff" opacity="0.25"/><rect x="140" y="193.1" width="520" height="17.7" fill="#B9C0C6"/><rect x="140" y="193.1" width="520" height="1.5" fill="#ffffff" opacity="0.25"/><rect x="140" y="214.6" width="520" height="17.7" fill="#A2AAB1"/><rect x="140" y="214.6" width="520" height="1.5" fill="#ffffff" opacity="0.25"/><rect x="140" y="236.2" width="520" height="17.7" fill="#B9C0C6"/><rect x="140" y="236.2" width="520" height="1.5" fill="#ffffff" opacity="0.25"/><rect x="140" y="257.7" width="520" height="17.7" fill="#A2AAB1"/><rect x="140" y="257.7" width="520" height="1.5" fill="#ffffff" opacity="0.25"/><rect x="140" y="279.2" width="520" height="17.7" fill="#B9C0C6"/><rect x="140" y="279.2" width="520" height="1.5" fill="#ffffff" opacity="0.25"/><rect x="140" y="300.8" width="520" height="17.7" fill="#A2AAB1"/><rect x="140" y="300.8" width="520" height="1.5" fill="#ffffff" opacity="0.25"/><rect x="140" y="322.3" width="520" height="17.7" fill="#B9C0C6"/><rect x="140" y="322.3" width="520" height="1.5" fill="#ffffff" opacity="0.25"/><rect x="140" y="343.8" width="520" height="17.7" fill="#A2AAB1"/><rect x="140" y="343.8" width="520" height="1.5" fill="#ffffff" opacity="0.25"/><rect x="140" y="365.4" width="520" height="17.7" fill="#B9C0C6"/><rect x="140" y="365.4" width="520" height="1.5" fill="#ffffff" opacity="0.25"/><rect x="140" y="386.9" width="520" height="17.7" fill="#A2AAB1"/><rect x="140" y="386.9" width="520" height="1.5" fill="#ffffff" opacity="0.25"/><rect x="140" y="408.5" width="520" height="17.7" fill="#B9C0C6"/><rect x="140" y="408.5" width="520" height="1.5" fill="#ffffff" opacity="0.25"/><rect x="140" y="430.0" width="520" height="17.7" fill="#A2AAB1"/><rect x="140" y="430.0" width="520" height="1.5" fill="#ffffff" opacity="0.25"/><rect x="140" y="451.5" width="520" height="17.7" fill="#B9C0C6"/><rect x="140" y="451.5" width="520" height="1.5" fill="#ffffff" opacity="0.25"/><rect x="140" y="473.1" width="520" height="17.7" fill="#A2AAB1"/><rect x="140" y="473.1" width="520" height="1.5" fill="#ffffff" opacity="0.25"/><rect x="140" y="494.6" width="520" height="17.7" fill="#B9C0C6"/><rect x="140" y="494.6" width="520" height="1.5" fill="#ffffff" opacity="0.25"/><rect x="140" y="516.2" width="520" height="17.7" fill="#A2AAB1"/><rect x="140" y="516.2" width="520" height="1.5" fill="#ffffff" opacity="0.25"/><rect x="140" y="537.7" width="520" height="17.7" fill="#B9C0C6"/><rect x="140" y="537.7" width="520" height="1.5" fill="#ffffff" opacity="0.25"/><rect x="140" y="559.2" width="520" height="17.7" fill="#A2AAB1"/><rect x="140" y="559.2" width="520" height="1.5" fill="#ffffff" opacity="0.25"/><rect x="140" y="580.8" width="520" height="17.7" fill="#B9C0C6"/><rect x="140" y="580.8" width="520" height="1.5" fill="#ffffff" opacity="0.25"/><rect x="140" y="602.3" width="520" height="17.7" fill="#A2AAB1"/><rect x="140" y="602.3" width="520" height="1.5" fill="#ffffff" opacity="0.25"/><rect x="140" y="623.8" width="520" height="17.7" fill="#B9C0C6"/><rect x="140" y="623.8" width="520" height="1.5" fill="#ffffff" opacity="0.25"/><rect x="140" y="645.4" width="520" height="17.7" fill="#A2AAB1"/><rect x="140" y="645.4" width="520" height="1.5" fill="#ffffff" opacity="0.25"/><rect x="140" y="666.9" width="520" height="17.7" fill="#B9C0C6"/><rect x="140" y="666.9" width="520" height="1.5" fill="#ffffff" opacity="0.25"/><rect x="140" y="688.5" width="520" height="17.7" fill="#A2AAB1"/><rect x="140" y="688.5" width="520" height="1.5" fill="#ffffff" opacity="0.25"/><line x1="270.0" y1="150" x2="270.0" y2="710" stroke="#00000018" stroke-width="1.5"/><line x1="530.0" y1="150" x2="530.0" y2="710" stroke="#00000018" stroke-width="1.5"/><rect x="140" y="150" width="520" height="10" fill="#8C949B"/></svg>