<svg xmlns="http://www.w3.org/2000/svg" viewBox="0 0 800 1000" width="800" height="1000">
<defs>
  <linearGradient id="wall" x1="0" y1="0" x2="0" y2="1">
    <stop offset="0" stop-color="#EDE7DC"/><stop offset="1" stop-color="#E3DBCC"/>
  </linearGradient>
  <linearGradient id="sky" x1="0" y1="0" x2="0" y2="1">
    <stop offset="0" stop-color="#CFE3EE"/><stop offset="1" stop-color="#EAF1F3"/>
  </linearGradient>
  <linearGradient id="gold" x1="0" y1="0" x2="1" y2="1">
    <stop offset="0" stop-color="#CFA968"/><stop offset="1" stop-color="#B8935A"/>
  </linearGradient>
  <filter id="soft" x="-20%" y="-20%" width="140%" height="140%">
    <feDropShadow dx="0" dy="6" stdDeviation="10" flood-color="#000" flood-opacity="0.12"/>
  </filter>
</defs>
<rect width="800" height="1000" fill="url(#wall)"/>
<rect x="0" y="850" width="800" height="150" fill="#C9B79A"/>
<rect x="0" y="850" width="800" height="4" fill="#B8A585"/><polygon points="192,788 192,270 608,132 608,788"
    fill="#F7F3EC" filter="url(#soft)" stroke="#D8CEBD" stroke-width="2"/>
<polygon points="210,770 210,290 590,150 590,770" fill="url(#sky)"/><rect x="210" y="280.0" width="380" height="19.3" fill="#E8E0D0"/><rect x="210" y="298.8" width="380" height="19.3" fill="#D6CCB8"/><rect x="210" y="317.7" width="380" height="19.3" fill="#E8E0D0"/><rect x="210" y="336.5" width="380" height="19.3" fill="#D6CCB8"/><rect x="210" y="355.4" width="380" height="19.3" fill="#E8E0D0"/><rect x="210" y="374.2" width="380" height="19.3" fill="#D6CCB8"/><rect x="210" y="393.1" width="380" height="19.3" fill="#E8E0D0"/><rect x="210" y="411.9" width="380" height="19.3" fill="#D6CCB8"/><rect x="210" y="430.8" width="380" height="19.3" fill="#E8E0D0"/><rect x="210" y="449.6" width="380" height="19.3" fill="#D6CCB8"/><rect x="210" y="468.5" width="380" height="19.3" fill="#E8E0D0"/><rect x="210" y="487.3" width="380" height="19.3" fill="#D6CCB8"/><rect x="210" y="506.2" width="380" height="19.3" fill="#E8E0D0"/><rect x="210" y="525.0" width="380" height="19.3" fill="#D6CCB8"/><rect x="210" y="543.8" width="380" height="19.3" fill="#E8E0D0"/><rect x="210" y="562.7" width="380" height="19.3" fill="#D6CCB8"/><rect x="210" y="581.5" width="380" height="19.3" fill="#E8E0D0"/><rect x="210" y="600.4" width="380" height="19.3" fill="#D6CCB8"/><rect x="210" y="619.2" width="380" height="19.3" fill="#E8E0D0"/><rect x="210" y="638.1" width="380" height="19.3" fill="#D6CCB8"/><rect x="210" y="656.9" width="380" height="19.3" fill="#E8E0D0"/><rect x="210" y="675.8" width="380" height="19.3" fill="#D6CCB8"/><rect x="210" y="694.6" width="380" height="19.3" fill="#E8E0D0"/><rect x="210" y="713.5" width="380" height="19.3" fill="#D6CCB8"/><rect x="210" y="732.3" width="380" height="19.3" fill="#E8E0D0"/><rect x="210" y="751.2" width="380" height="19.3" fill="#D6CCB8"/><rect x="210" y="272" width="380" height="10" fill="#C9C2B4"/><rect x="210" y="762" width="380" height="10" fill="#B0A895"/></svg>