<svg xmlns="http://www.w3.org/2000/svg" viewBox="0 0 800 600" width="800" height="600"><defs>
<linearGradient id="w" x1="0" y1="0" x2="0" y2="1"><stop offset="0" stop-color="#E4E7EA"/><stop offset="1" stop-color="#D3D8DD"/></linearGradient>
<linearGradient id="s" x1="0" y1="0" x2="0" y2="1"><stop offset="0" stop-color="#C8DDE9"/><stop offset="1" stop-color="#E9F0EC"/></linearGradient>
<filter id="sf" x="-20%" y="-20%" width="140%" height="140%"><feDropShadow dx="0" dy="5" stdDeviation="8" flood-color="#000" flood-opacity="0.12"/></filter>
</defs><rect width="800" height="600" fill="url(#w)"/><rect x="0" y="490" width="800" height="110" fill="#B9BBBE"/><rect x="0" y="490" width="800" height="3" fill="#00000018"/><rect x="196" y="66" width="408" height="388" rx="3" fill="#F6F2EA" filter="url(#sf)" stroke="#D2C8B6" stroke-width="2"/><rect x="210" y="80" width="380" height="360" fill="url(#s)"/><rect x="396.0" y="80" width="8" height="360" fill="#EDE7DB"/><rect x="210" y="80.0" width="380" height="16.8" fill="#5B5852"/><rect x="210" y="100.0" width="380" height="16.8" fill="#494640"/><rect x="210" y="120.0" width="380" height="16.8" fill="#5B5852"/><rect x="210" y="140.0" width="380" height="16.8" fill="#494640"/><rect x="210" y="160.0" width="380" height="16.8" fill="#5B5852"/><rect x="210" y="180.0" width="380" height="16.8" fill="#494640"/><rect x="210" y="200.0" width="380" height="16.8" fill="#5B5852"/><rect x="210" y="220.0" width="380" height="16.8" fill="#494640"/><rect x="210" y="240.0" width="380" height="16.8" fill="#5B5852"/><rect x="210" y="260.0" width="380" height="16.8" fill="#494640"/><rect x="210" y="280.0" width="380" height="16.8" fill="#5B5852"/><rect x="210" y="300.0" width="380" height="16.8" fill="#494640"/><rect x="210" y="320.0" width="380" height="16.8" fill="#5B5852"/><rect x="210" y="340.0" width="380" height="16.8" fill="#494640"/><rect x="210" y="360.0" width="380" height="16.8" fill="#5B5852"/><rect x="210" y="380.0" width="380" height="16.8" fill="#494640"/><rect x="210" y="400.0" width="380" height="16.8" fill="#5B5852"/><rect x="210" y="420.0" width="380" height="16.8" fill="#494640"/><rect x="210" y="80" width="380" height="6" fill="#494640"/><rect x="90" y="420" width="120" height="12" rx="3" fill="#A98C64"/><rect x="98" y="432" width="8" height="46" fill="#987A52"/><rect x="194" y="432" width="8" height="46" fill="#987A52"/><rect x="560" y="420" width="120" height="12" rx="3" fill="#A98C64"/><rect x="568" y="432" width="8" height="46" fill="#987A52"/><rect x="664" y="432" width="8" height="46" fill="#987A52"/></svg>