<svg xmlns="http://www.w3.org/2000/svg" viewBox="0 0 800 1000" width="800" height="1000">
<defs>
  <linearGradient id="wall" x1="0" y1="0" x2="0" y2="1">
    <stop offset="0" stop-color="#EDE7DC"/><stop offset="1" stop-color="#E3DBCC"/>
  </linearGradient>
  <linearGradient id="sky" x1="0" y1="0" x2="0" y2="1">
    <stop offset="0" stop-color="#CFE3EE"/><stop offset="1" stop-color="#EAF1F3"/>
  </linearGradient>
  <linearGradient id="gold" x1="0" y1="0" x2="1" y2="1">
    <stop offset="0" stop-color="#CFA968"/><stop offset="1" stop-color="#B8935A"/>
  </linearGradient>
  <filter id="soft" x="-20%" y="-20%" width="140%" height="140%">
    <feDropShadow dx="0" dy="6" stdDeviation="10" flood-color="#000" flood-opacity="0.12"/>
  </filter>
</defs>
<rect width="800" height="1000" fill="url(#wall)"/>
<rect x="0" y="850" width="800" height="150" fill="#C9B79A"/>
<rect x="0" y="850" width="800" height="4" fill="#B8A585"/><rect x="192" y="132" width="416" height="656" rx="6" fill="#F7F3EC" filter="url(#soft)"/><rect x="192" y="132" width="416" height="656" rx="6" fill="none" stroke="#D8CEBD" stroke-width="2"/><rect x="210" y="150" width="380" height="620" fill="url(#sky)"/><circle cx="483.59999999999997" cy="323.6" r="38.0" fill="#FBF3DE" opacity="0.7"/><rect x="210" y="571.6" width="380" height="198.4" fill="#D5E0D2" opacity="0.5"/><rect x="220" y="140" width="360" height="620" rx="4" fill="#F4F0E8" stroke="#D8CEBD" stroke-width="2"/><rect x="224" y="140" width="352" height="34" rx="4" fill="#CFC7B7"/><rect x="224" y="140" width="352" height="34" rx="4" fill="url(#gold)" opacity="0.15"/><rect x="230" y="174" width="340" height="417.59999999999997" fill="#E4DCCB"/><rect x="226" y="174" width="4" height="417.59999999999997" fill="#B7AE9E"/><rect x="570" y="174" width="4" height="417.59999999999997" fill="#B7AE9E"/><rect x="228" y="591.5999999999999" width="344" height="12" fill="#A79E8E"/></svg>