<svg xmlns="http://www.w3.org/2000/svg" viewBox="0 0 800 1000" width="800" height="1000">
<defs>
  <linearGradient id="wall" x1="0" y1="0" x2="0" y2="1">
    <stop offset="0" stop-color="#EDE7DC"/><stop offset="1" stop-color="#E3DBCC"/>
  </linearGradient>
  <linearGradient id="sky" x1="0" y1="0" x2="0" y2="1">
    <stop offset="0" stop-color="#CFE3EE"/><stop offset="1" stop-color="#EAF1F3"/>
  </linearGradient>
  <linearGradient id="gold" x1="0" y1="0" x2="1" y2="1">
    <stop offset="0" stop-color="#CFA968"/><stop offset="1" stop-color="#B8935A"/>
  </linearGradient>
  <filter id="soft" x="-20%" y="-20%" width="140%" height="140%">
    <feDropShadow dx="0" dy="6" stdDeviation="10" flood-color="#000" flood-opacity="0.12"/>
  </filter>
</defs>
<rect width="800" height="1000" fill="url(#wall)"/>
<rect x="0" y="850" width="800" height="150" fill="#C9B79A"/>
<rect x="0" y="850" width="800" height="4" fill="#B8A585"/><rect x="192" y="132" width="416" height="656" rx="6" fill="#F7F3EC" filter="url(#soft)"/><rect x="192" y="132" width="416" height="656" rx="6" fill="none" stroke="#D8CEBD" stroke-width="2"/><rect x="210" y="150" width="380" height="620" fill="url(#sky)"/><circle cx="483.59999999999997" cy="323.6" r="38.0" fill="#FBF3DE" opacity="0.7"/><rect x="210" y="571.6" width="380" height="198.4" fill="#D5E0D2" opacity="0.5"/><rect x="210" y="150.0" width="380" height="22.1" fill="#E6DFD2"/><rect x="210" y="172.1" width="380" height="22.1" fill="#EAE4D8" opacity="0.35"/><rect x="210" y="194.3" width="380" height="22.1" fill="#E6DFD2"/><rect x="210" y="216.4" width="380" height="22.1" fill="#EAE4D8" opacity="0.35"/><rect x="210" y="238.6" width="380" height="22.1" fill="#E6DFD2"/><rect x="210" y="260.7" width="380" height="22.1" fill="#EAE4D8" opacity="0.35"/><rect x="210" y="282.9" width="380" height="22.1" fill="#E6DFD2"/><rect x="210" y="305.0" width="380" height="22.1" fill="#EAE4D8" opacity="0.35"/><rect x="210" y="327.1" width="380" height="22.1" fill="#E6DFD2"/><rect x="210" y="349.3" width="380" height="22.1" fill="#EAE4D8" opacity="0.35"/><rect x="210" y="371.4" width="380" height="22.1" fill="#E6DFD2"/><rect x="210" y="393.6" width="380" height="22.1" fill="#EAE4D8" opacity="0.35"/><rect x="210" y="415.7" width="380" height="22.1" fill="#E6DFD2"/><rect x="210" y="437.9" width="380" height="22.1" fill="#EAE4D8" opacity="0.35"/><rect x="210" y="460.0" width="380" height="22.1" fill="#E6DFD2"/><rect x="210" y="482.1" width="380" height="22.1" fill="#EAE4D8" opacity="0.35"/><rect x="210" y="504.3" width="380" height="22.1" fill="#E6DFD2"/><rect x="210" y="526.4" width="380" height="22.1" fill="#EAE4D8" opacity="0.35"/><rect x="210" y="548.6" width="380" height="22.1" fill="#E6DFD2"/><rect x="210" y="570.7" width="380" height="22.1" fill="#EAE4D8" opacity="0.35"/><rect x="210" y="592.9" width="380" height="22.1" fill="#E6DFD2"/><rect x="210" y="615.0" width="380" height="22.1" fill="#EAE4D8" opacity="0.35"/><rect x="210" y="637.1" width="380" height="22.1" fill="#E6DFD2"/><rect x="210" y="659.3" width="380" height="22.1" fill="#EAE4D8" opacity="0.35"/><rect x="210" y="681.4" width="380" height="22.1" fill="#E6DFD2"/><rect x="210" y="703.6" width="380" height="22.1" fill="#EAE4D8" opacity="0.35"/><rect x="210" y="725.7" width="380" height="22.1" fill="#E6DFD2"/><rect x="210" y="747.9" width="380" height="22.1" fill="#EAE4D8" opacity="0.35"/><rect x="204" y="136" width="392" height="22" rx="11" fill="#B7AE9E"/><rect x="210" y="758" width="380" height="12" fill="#9C9385"/></svg>