<svg xmlns="http://www.w3.org/2000/svg" viewBox="0 0 800 1000" width="800" height="1000">
<defs>
  <linearGradient id="wall" x1="0" y1="0" x2="0" y2="1">
    <stop offset="0" stop-color="#EDE7DC"/><stop offset="1" stop-color="#E3DBCC"/>
  </linearGradient>
  <linearGradient id="sky" x1="0" y1="0" x2="0" y2="1">
    <stop offset="0" stop-color="#CFE3EE"/><stop offset="1" stop-color="#EAF1F3"/>
  </linearGradient>
  <linearGradient id="alu" x1="0" y1="0" x2="0" y2="1">
    <stop offset="0" stop-color="#E8ECEF"/><stop offset="0.5" stop-color="#C9D0D6"/><stop offset="1" stop-color="#B4BCC3"/>
  </linearGradient>
  <linearGradient id="gold" x1="0" y1="0" x2="1" y2="1">
    <stop offset="0" stop-color="#CFA968"/><stop offset="1" stop-color="#B8935A"/>
  </linearGradient>
  <filter id="soft" x="-20%" y="-20%" width="140%" height="140%">
    <feDropShadow dx="0" dy="6" stdDeviation="10" flood-color="#000" flood-opacity="0.12"/>
  </filter>
</defs>
<rect width="800" height="1000" fill="url(#wall)"/>
<rect x="0" y="850" width="800" height="150" fill="#C9B79A"/>
<rect x="0" y="850" width="800" height="4" fill="#B8A585"/><rect x="192" y="132" width="416" height="656" rx="6" fill="#F7F3EC" filter="url(#soft)"/><rect x="192" y="132" width="416" height="656" rx="6" fill="none" stroke="#D8CEBD" stroke-width="2"/><rect x="210" y="150" width="380" height="620" fill="url(#sky)"/><circle cx="483.59999999999997" cy="323.6" r="38.0" fill="#FBF3DE" opacity="0.7"/><rect x="210" y="571.6" width="380" height="198.4" fill="#D5E0D2" opacity="0.5"/><rect x="210" y="150.0" width="380" height="16.6" fill="url(#alu)"/><rect x="210" y="150.0" width="380" height="1.5" fill="#ffffff" opacity="0.3"/><rect x="210" y="170.3" width="380" height="16.6" fill="url(#alu)"/><rect x="210" y="170.3" width="380" height="1.5" fill="#ffffff" opacity="0.3"/><rect x="210" y="190.6" width="380" height="16.6" fill="url(#alu)"/><rect x="210" y="190.6" width="380" height="1.5" fill="#ffffff" opacity="0.3"/><rect x="210" y="210.9" width="380" height="16.6" fill="url(#alu)"/><rect x="210" y="210.9" width="380" height="1.5" fill="#ffffff" opacity="0.3"/><rect x="210" y="231.2" width="380" height="16.6" fill="url(#alu)"/><rect x="210" y="231.2" width="380" height="1.5" fill="#ffffff" opacity="0.3"/><rect x="210" y="251.5" width="380" height="16.6" fill="url(#alu)"/><rect x="210" y="251.5" width="380" height="1.5" fill="#ffffff" opacity="0.3"/><rect x="210" y="271.7" width="380" height="16.6" fill="url(#alu)"/><rect x="210" y="271.7" width="380" height="1.5" fill="#ffffff" opacity="0.3"/><rect x="210" y="292.0" width="380" height="16.6" fill="url(#alu)"/><rect x="210" y="292.0" width="380" height="1.5" fill="#ffffff" opacity="0.3"/><rect x="210" y="312.3" width="380" height="16.6" fill="url(#alu)"/><rect x="210" y="312.3" width="380" height="1.5" fill="#ffffff" opacity="0.3"/><rect x="210" y="332.6" width="380" height="16.6" fill="url(#alu)"/><rect x="210" y="332.6" width="380" height="1.5" fill="#ffffff" opacity="0.3"/><rect x="210" y="352.9" width="380" height="16.6" fill="url(#alu)"/><rect x="210" y="352.9" width="380" height="1.5" fill="#ffffff" opacity="0.3"/><rect x="210" y="373.2" width="380" height="16.6" fill="url(#alu)"/><rect x="210" y="373.2" width="380" height="1.5" fill="#ffffff" opacity="0.3"/><rect x="210" y="393.5" width="380" height="16.6" fill="url(#alu)"/><rect x="210" y="393.5" width="380" height="1.5" fill="#ffffff" opacity="0.3"/><rect x="210" y="413.8" width="380" height="16.6" fill="url(#alu)"/><rect x="210" y="413.8" width="380" height="1.5" fill="#ffffff" opacity="0.3"/><rect x="210" y="434.1" width="380" height="16.6" fill="url(#alu)"/><rect x="210" y="434.1" width="380" height="1.5" fill="#ffffff" opacity="0.3"/><rect x="210" y="454.4" width="380" height="16.6" fill="url(#alu)"/><rect x="210" y="454.4" width="380" height="1.5" fill="#ffffff" opacity="0.3"/><rect x="210" y="474.7" width="380" height="16.6" fill="url(#alu)"/><rect x="210" y="474.7" width="380" height="1.5" fill="#ffffff" opacity="0.3"/><rect x="210" y="494.9" width="380" height="16.6" fill="url(#alu)"/><rect x="210" y="494.9" width="380" height="1.5" fill="#ffffff" opacity="0.3"/><rect x="210" y="515.2" width="380" height="16.6" fill="url(#alu)"/><rect x="210" y="515.2" width="380" height="1.5" fill="#ffffff" opacity="0.3"/><rect x="210" y="535.5" width="380" height="16.6" fill="url(#alu)"/><rect x="210" y="535.5" width="380" height="1.5" fill="#ffffff" opacity="0.3"/><rect x="210" y="555.8" width="380" height="16.6" fill="url(#alu)"/><rect x="210" y="555.8" width="380" height="1.5" fill="#ffffff" opacity="0.3"/><rect x="210" y="576.1" width="380" height="16.6" fill="url(#alu)"/><rect x="210" y="576.1" width="380" height="1.5" fill="#ffffff" opacity="0.3"/><rect x="210" y="596.4" width="380" height="9" fill="#9BA3AA"/><rect x="210" y="150" width="380" height="12" fill="#AEB6BD"/><rect x="225.5" y="164" width="5" height="190" rx="2.5" fill="#C9C2B4" stroke="#00000022" stroke-width="0.8"/><circle cx="228" cy="358" r="4.5" fill="#C9C2B4" stroke="#00000022" stroke-width="0.8"/><line x1="572" y1="164" x2="572" y2="424" stroke="#8A8175" stroke-width="2.4"/><rect x="568" y="424" width="8" height="16" rx="3" fill="#8A8175"/></svg>