<svg xmlns="http://www.w3.org/2000/svg" viewBox="0 0 800 1000" width="800" height="1000">
<defs>
  <linearGradient id="wall" x1="0" y1="0" x2="0" y2="1">
    <stop offset="0" stop-color="#EDE7DC"/><stop offset="1" stop-color="#E3DBCC"/>
  </linearGradient>
  <linearGradient id="sky" x1="0" y1="0" x2="0" y2="1">
    <stop offset="0" stop-color="#CFE3EE"/><stop offset="1" stop-color="#EAF1F3"/>
  </linearGradient>
  <linearGradient id="gold" x1="0" y1="0" x2="1" y2="1">
    <stop offset="0" stop-color="#CFA968"/><stop offset="1" stop-color="#B8935A"/>
  </linearGradient>
  <filter id="soft" x="-20%" y="-20%" width="140%" height="140%">
    <feDropShadow dx="0" dy="6" stdDeviation="10" flood-color="#000" flood-opacity="0.12"/>
  </filter>
</defs>
<rect width="800" height="1000" fill="url(#wall)"/>
<rect x="0" y="850" width="800" height="150" fill="#C9B79A"/>
<rect x="0" y="850" width="800" height="4" fill="#B8A585"/><rect x="192" y="132" width="416" height="656" rx="6" fill="#F7F3EC" filter="url(#soft)"/><rect x="192" y="132" width="416" height="656" rx="6" fill="none" stroke="#D8CEBD" stroke-width="2"/><rect x="210" y="150" width="380" height="620" fill="url(#sky)"/><circle cx="483.59999999999997" cy="323.6" r="38.0" fill="#FBF3DE" opacity="0.7"/><rect x="210" y="571.6" width="380" height="198.4" fill="#D5E0D2" opacity="0.5"/><rect x="210" y="323.6" width="380" height="446.4" fill="#DED6C6"/><rect x="210" y="323.6" width="152.0" height="446.4" fill="#ffffff" opacity="0.06"/><rect x="204" y="307.6" width="392" height="26" rx="13" fill="#B7AE9E"/><rect x="210" y="756" width="380" height="14" fill="#9C9385"/><line x1="592" y1="323.6" x2="592" y2="522.0" stroke="#8a8175" stroke-width="2"/><g transform="translate(620,330)"><rect x="0" y="0" width="46" height="86" rx="10" fill="#2A2723"/><rect x="10" y="12" width="26" height="18" rx="3" fill="#B8935A"/><circle cx="16" cy="46" r="5" fill="#8a8175"/><circle cx="30" cy="46" r="5" fill="#8a8175"/><circle cx="16" cy="64" r="5" fill="#8a8175"/><circle cx="30" cy="64" r="5" fill="#8a8175"/></g><g stroke="#B8935A" stroke-width="4" fill="none" opacity="0.8"><path d="M 550 220 q 30 -30 60 0"/><path d="M 560 232 q 20 -20 40 0"/></g></svg>