<svg xmlns="http://www.w3.org/2000/svg" viewBox="0 0 800 1000" width="800" height="1000">
<defs>
  <linearGradient id="wall" x1="0" y1="0" x2="0" y2="1">
    <stop offset="0" stop-color="#EDE7DC"/><stop offset="1" stop-color="#E3DBCC"/>
  </linearGradient>
  <linearGradient id="sky" x1="0" y1="0" x2="0" y2="1">
    <stop offset="0" stop-color="#CFE3EE"/><stop offset="1" stop-color="#EAF1F3"/>
  </linearGradient>
  <linearGradient id="alu" x1="0" y1="0" x2="0" y2="1">
    <stop offset="0" stop-color="#E8ECEF"/><stop offset="0.5" stop-color="#C9D0D6"/><stop offset="1" stop-color="#B4BCC3"/>
  </linearGradient>
  <linearGradient id="gold" x1="0" y1="0" x2="1" y2="1">
    <stop offset="0" stop-color="#CFA968"/><stop offset="1" stop-color="#B8935A"/>
  </linearGradient>
  <filter id="soft" x="-20%" y="-20%" width="140%" height="140%">
    <feDropShadow dx="0" dy="6" stdDeviation="10" flood-color="#000" flood-opacity="0.12"/>
  </filter>
</defs>
<rect width="800" height="1000" fill="url(#wall)"/>
<rect x="0" y="850" width="800" height="150" fill="#C9B79A"/>
<rect x="0" y="850" width="800" height="4" fill="#B8A585"/><polygon points="0,0 800,0 800,120 0,340" fill="#E6DFD1"/><line x1="0" y1="340" x2="800" y2="120" stroke="#D2C8B6" stroke-width="3"/><polygon points="164,224 636,94 636,566 164,696" fill="#F7F3EC" filter="url(#soft)" stroke="#D8CEBD" stroke-width="2"/><polygon points="180,240 620,110 620,550 180,680" fill="url(#sky)"/><circle cx="479.20000000000005" cy="288.0" r="42" fill="#FBF3DE" opacity="0.75"/><polygon points="274.0,212.2 288.0,208.1 288.0,648.1 274.0,652.2" fill="#E8E0D0" stroke="#C4B89F" stroke-width="0.8"/><polygon points="288.0,208.1 302.0,204.0 302.0,644.0 288.0,648.1" fill="#D6CCB8" stroke="#C4B89F" stroke-width="0.8"/><polygon points="302.0,204.0 316.0,199.8 316.0,639.8 302.0,644.0" fill="#E8E0D0" stroke="#C4B89F" stroke-width="0.8"/><polygon points="316.0,199.8 330.0,195.7 330.0,635.7 316.0,639.8" fill="#D6CCB8" stroke="#C4B89F" stroke-width="0.8"/><polygon points="330.0,195.7 344.0,191.5 344.0,631.5 330.0,635.7" fill="#E8E0D0" stroke="#C4B89F" stroke-width="0.8"/><polygon points="344.0,191.5 358.0,187.4 358.0,627.4 344.0,631.5" fill="#D6CCB8" stroke="#C4B89F" stroke-width="0.8"/><polygon points="358.0,187.4 372.0,183.3 372.0,623.3 358.0,627.4" fill="#E8E0D0" stroke="#C4B89F" stroke-width="0.8"/><polygon points="372.0,183.3 386.0,179.1 386.0,619.1 372.0,623.3" fill="#D6CCB8" stroke="#C4B89F" stroke-width="0.8"/><polygon points="386.0,179.1 400.0,175.0 400.0,615.0 386.0,619.1" fill="#E8E0D0" stroke="#C4B89F" stroke-width="0.8"/><polygon points="400.0,175.0 414.0,170.9 414.0,610.9 400.0,615.0" fill="#E8E0D0" stroke="#C4B89F" stroke-width="0.8"/><polygon points="414.0,170.9 428.0,166.7 428.0,606.7 414.0,610.9" fill="#D6CCB8" stroke="#C4B89F" stroke-width="0.8"/><polygon points="428.0,166.7 442.0,162.6 442.0,602.6 428.0,606.7" fill="#E8E0D0" stroke="#C4B89F" stroke-width="0.8"/><polygon points="442.0,162.6 456.0,158.5 456.0,598.5 442.0,602.6" fill="#D6CCB8" stroke="#C4B89F" stroke-width="0.8"/><polygon points="456.0,158.5 470.0,154.3 470.0,594.3 456.0,598.5" fill="#E8E0D0" stroke="#C4B89F" stroke-width="0.8"/><polygon points="470.0,154.3 484.0,150.2 484.0,590.2 470.0,594.3" fill="#D6CCB8" stroke="#C4B89F" stroke-width="0.8"/><polygon points="484.0,150.2 498.0,146.0 498.0,586.0 484.0,590.2" fill="#E8E0D0" stroke="#C4B89F" stroke-width="0.8"/><polygon points="498.0,146.0 512.0,141.9 512.0,581.9 498.0,586.0" fill="#D6CCB8" stroke="#C4B89F" stroke-width="0.8"/><polygon points="512.0,141.9 526.0,137.8 526.0,577.8 512.0,581.9" fill="#E8E0D0" stroke="#C4B89F" stroke-width="0.8"/><line x1="180" y1="240" x2="620" y2="110" stroke="#8A8175" stroke-width="1.6" opacity="0.6"/><line x1="180" y1="680" x2="620" y2="550" stroke="#8A8175" stroke-width="1.6" opacity="0.6"/><rect x="271.0" y="414.22727272727275" width="6" height="36" rx="3" fill="#B8935A"/><rect x="523.0" y="339.77272727272725" width="6" height="36" rx="3" fill="#B8935A"/></svg>