<svg xmlns="http://www.w3.org/2000/svg" viewBox="0 0 800 1000" width="800" height="1000">
<defs>
  <linearGradient id="wall" x1="0" y1="0" x2="0" y2="1">
    <stop offset="0" stop-color="#EFE9DE"/><stop offset="1" stop-color="#E2D9C8"/>
  </linearGradient>
  <linearGradient id="sky" x1="0" y1="0" x2="0" y2="1">
    <stop offset="0" stop-color="#CFE3EE"/><stop offset="1" stop-color="#EAF1EA"/>
  </linearGradient>
  <linearGradient id="fold" x1="0" y1="0" x2="0" y2="1">
    <stop offset="0" stop-color="#EBDFC9"/>
    <stop offset="0.55" stop-color="#E3D5BB"/>
    <stop offset="0.85" stop-color="#CDBB9A"/>
    <stop offset="1" stop-color="#B9A67F"/>
  </linearGradient>
  <linearGradient id="sun" x1="0" y1="0" x2="0" y2="1">
    <stop offset="0" stop-color="#FBF4E2" stop-opacity="0.85"/><stop offset="1" stop-color="#FBF4E2" stop-opacity="0"/>
  </linearGradient>
  <filter id="soft" x="-20%" y="-20%" width="140%" height="140%">
    <feDropShadow dx="0" dy="6" stdDeviation="10" flood-color="#000" flood-opacity="0.12"/>
  </filter>
</defs>
<rect width="800" height="1000" fill="url(#wall)"/>
<rect x="0" y="850" width="800" height="150" fill="#CBB693"/>
<rect x="0" y="850" width="800" height="4" fill="#B39F79"/>
<rect x="172" y="112" width="456" height="676" rx="6" fill="#F7F3EC" filter="url(#soft)"/><rect x="172" y="112" width="456" height="676" rx="6" fill="none" stroke="#D8CEBD" stroke-width="2"/><rect x="190" y="130" width="420" height="640" fill="url(#sky)"/><circle cx="484.0" cy="270.8" r="90" fill="#FBF3DE" opacity="0.7"/><rect x="190" y="130" width="420" height="178.6" fill="#E7DBC3"/><rect x="190" y="130" width="14" height="178.6" fill="#000000" opacity="0.045"/><rect x="596" y="130" width="14" height="178.6" fill="#000000" opacity="0.045"/><path d="M 190 308.6 L 610 308.6 L 610 353.7 Q 400.0 371.3 190 353.7 Z" fill="url(#fold)"/><rect x="190" y="308.6" width="420" height="3" fill="#FFFFFF" opacity="0.35"/><path d="M 190 353.7 Q 400.0 371.3 610 353.7 L 610 358.8 Q 400.0 377.6 190 358.8 Z" fill="#8F7B57" opacity="0.25"/><path d="M 190 363.1 L 610 363.1 L 610 411.4 Q 400.0 430.2 190 411.4 Z" fill="url(#fold)"/><rect x="190" y="363.1" width="420" height="3" fill="#FFFFFF" opacity="0.35"/><path d="M 190 411.4 Q 400.0 430.2 610 411.4 L 610 416.8 Q 400.0 436.9 190 416.8 Z" fill="#8F7B57" opacity="0.25"/><path d="M 190 417.7 L 610 417.7 L 610 469.1 Q 400.0 489.2 190 469.1 Z" fill="url(#fold)"/><rect x="190" y="417.7" width="420" height="3" fill="#FFFFFF" opacity="0.35"/><path d="M 190 469.1 Q 400.0 489.2 610 469.1 L 610 474.9 Q 400.0 496.3 190 474.9 Z" fill="#8F7B57" opacity="0.25"/><path d="M 190 472.2 L 610 472.2 L 610 526.8 Q 400.0 548.1 190 526.8 Z" fill="url(#fold)"/><rect x="190" y="472.2" width="420" height="3" fill="#FFFFFF" opacity="0.35"/><path d="M 190 526.8 Q 400.0 548.1 610 526.8 L 610 532.9 Q 400.0 555.7 190 532.9 Z" fill="#8F7B57" opacity="0.25"/><rect x="182" y="120" width="436" height="18" rx="3" fill="#B8935A"/><line x1="620" y1="138" x2="620" y2="370" stroke="#8A8175" stroke-width="2" stroke-dasharray="3 3"/><circle cx="620" cy="378" r="5" fill="#B8935A"/><polygon points="230,770 570,770 680,1000 120,1000" fill="url(#sun)" opacity="0.45"/>
<g>
  <rect x="80" y="740" width="180" height="14" rx="4" fill="#A98C64"/>
  <rect x="96" y="754" width="10" height="96" fill="#987A52"/>
  <rect x="234" y="754" width="10" height="96" fill="#987A52"/>
  <path d="M150 740 q -4 -34 10 -48 q 14 14 10 48 z" fill="#9CB089"/>
  <ellipse cx="160" cy="738" rx="18" ry="6" fill="#C9B99B"/>
</g>
<g>
  <rect x="620" y="670" width="80" height="100" rx="8" fill="#B79E7C"/>
  <path d="M660 670 q -50 -95 -18 -170 q 34 60 18 170" fill="#8CA07A"/>
  <path d="M660 670 q 52 -100 26 -180 q -44 68 -26 180" fill="#9CB089"/>
</g>
</svg>