<svg xmlns="http://www.w3.org/2000/svg" viewBox="0 0 800 1000" width="800" height="1000">
<defs>
  <linearGradient id="wall" x1="0" y1="0" x2="0" y2="1">
    <stop offset="0" stop-color="#EDE7DC"/><stop offset="1" stop-color="#E3DBCC"/>
  </linearGradient>
  <linearGradient id="sky" x1="0" y1="0" x2="0" y2="1">
    <stop offset="0" stop-color="#CFE3EE"/><stop offset="1" stop-color="#EAF1F3"/>
  </linearGradient>
  <linearGradient id="alu" x1="0" y1="0" x2="0" y2="1">
    <stop offset="0" stop-color="#E8ECEF"/><stop offset="0.5" stop-color="#C9D0D6"/><stop offset="1" stop-color="#B4BCC3"/>
  </linearGradient>
  <linearGradient id="gold" x1="0" y1="0" x2="1" y2="1">
    <stop offset="0" stop-color="#CFA968"/><stop offset="1" stop-color="#B8935A"/>
  </linearGradient>
  <filter id="soft" x="-20%" y="-20%" width="140%" height="140%">
    <feDropShadow dx="0" dy="6" stdDeviation="10" flood-color="#000" flood-opacity="0.12"/>
  </filter>
</defs>
<rect width="800" height="1000" fill="url(#wall)"/>
<rect x="0" y="850" width="800" height="150" fill="#C9B79A"/>
<rect x="0" y="850" width="800" height="4" fill="#B8A585"/><rect x="142" y="132" width="516" height="636" rx="6" fill="#F7F3EC" filter="url(#soft)"/><rect x="142" y="132" width="516" height="636" rx="6" fill="none" stroke="#D8CEBD" stroke-width="2"/><rect x="160" y="150" width="480" height="600" fill="url(#sky)"/><circle cx="505.59999999999997" cy="318.0" r="48.0" fill="#FBF3DE" opacity="0.7"/><rect x="160" y="558.0" width="480" height="192.0" fill="#D5E0D2" opacity="0.5"/><rect x="160.0" y="150" width="30.9" height="600" fill="#EDE9E1"/><rect x="160.0" y="150" width="1.5" height="600" fill="#ffffff" opacity="0.22"/><rect x="194.3" y="150" width="30.9" height="600" fill="#DCD6C8"/><rect x="194.3" y="150" width="1.5" height="600" fill="#ffffff" opacity="0.22"/><rect x="228.6" y="150" width="30.9" height="600" fill="#EDE9E1"/><rect x="228.6" y="150" width="1.5" height="600" fill="#ffffff" opacity="0.22"/><rect x="262.9" y="150" width="30.9" height="600" fill="#DCD6C8"/><rect x="262.9" y="150" width="1.5" height="600" fill="#ffffff" opacity="0.22"/><rect x="297.1" y="150" width="30.9" height="600" fill="#EDE9E1"/><rect x="297.1" y="150" width="1.5" height="600" fill="#ffffff" opacity="0.22"/><rect x="331.4" y="150" width="30.9" height="600" fill="#DCD6C8"/><rect x="331.4" y="150" width="1.5" height="600" fill="#ffffff" opacity="0.22"/><rect x="365.7" y="150" width="30.9" height="600" fill="#EDE9E1"/><rect x="365.7" y="150" width="1.5" height="600" fill="#ffffff" opacity="0.22"/><rect x="400.0" y="150" width="30.9" height="600" fill="#DCD6C8"/><rect x="400.0" y="150" width="1.5" height="600" fill="#ffffff" opacity="0.22"/><rect x="434.3" y="150" width="30.9" height="600" fill="#EDE9E1"/><rect x="434.3" y="150" width="1.5" height="600" fill="#ffffff" opacity="0.22"/><rect x="468.6" y="150" width="30.9" height="600" fill="#DCD6C8"/><rect x="468.6" y="150" width="1.5" height="600" fill="#ffffff" opacity="0.22"/><rect x="502.9" y="150" width="30.9" height="600" fill="#EDE9E1"/><rect x="502.9" y="150" width="1.5" height="600" fill="#ffffff" opacity="0.22"/><rect x="537.1" y="150" width="30.9" height="600" fill="#DCD6C8"/><rect x="537.1" y="150" width="1.5" height="600" fill="#ffffff" opacity="0.22"/><rect x="571.4" y="150" width="30.9" height="600" fill="#EDE9E1"/><rect x="571.4" y="150" width="1.5" height="600" fill="#ffffff" opacity="0.22"/><rect x="605.7" y="150" width="30.9" height="600" fill="#DCD6C8"/><rect x="605.7" y="150" width="1.5" height="600" fill="#ffffff" opacity="0.22"/><rect x="160" y="144" width="480" height="12" fill="#C9C2B4"/><line x1="666" y1="152" x2="666" y2="452" stroke="#8A8175" stroke-width="2.4" stroke-dasharray="4 4"/><circle cx="666" cy="459" r="6" fill="#B8935A"/></svg>