<svg xmlns="http://www.w3.org/2000/svg" viewBox="0 0 800 1000" width="800" height="1000">
<defs>
  <linearGradient id="wall" x1="0" y1="0" x2="0" y2="1">
    <stop offset="0" stop-color="#EDE7DC"/><stop offset="1" stop-color="#E3DBCC"/>
  </linearGradient>
  <linearGradient id="sky" x1="0" y1="0" x2="0" y2="1">
    <stop offset="0" stop-color="#CFE3EE"/><stop offset="1" stop-color="#EAF1F3"/>
  </linearGradient>
  <linearGradient id="gold" x1="0" y1="0" x2="1" y2="1">
    <stop offset="0" stop-color="#CFA968"/><stop offset="1" stop-color="#B8935A"/>
  </linearGradient>
  <filter id="soft" x="-20%" y="-20%" width="140%" height="140%">
    <feDropShadow dx="0" dy="6" stdDeviation="10" flood-color="#000" flood-opacity="0.12"/>
  </filter>
</defs>
<rect width="800" height="1000" fill="url(#wall)"/>
<rect x="0" y="850" width="800" height="150" fill="#C9B79A"/>
<rect x="0" y="850" width="800" height="4" fill="#B8A585"/><rect x="192" y="132" width="416" height="656" rx="6" fill="#F7F3EC" filter="url(#soft)"/><rect x="192" y="132" width="416" height="656" rx="6" fill="none" stroke="#D8CEBD" stroke-width="2"/><rect x="210" y="150" width="380" height="620" fill="url(#sky)"/><circle cx="483.59999999999997" cy="323.6" r="38.0" fill="#FBF3DE" opacity="0.7"/><rect x="210" y="571.6" width="380" height="198.4" fill="#D5E0D2" opacity="0.5"/><rect x="210" y="150.0" width="380" height="23.1" fill="#D8B98C"/><rect x="210" y="150.0" width="380" height="1.5" fill="#ffffff" opacity="0.25"/><rect x="210" y="178.2" width="380" height="23.1" fill="#C7A374"/><rect x="210" y="178.2" width="380" height="1.5" fill="#ffffff" opacity="0.25"/><rect x="210" y="206.4" width="380" height="23.1" fill="#D8B98C"/><rect x="210" y="206.4" width="380" height="1.5" fill="#ffffff" opacity="0.25"/><rect x="210" y="234.5" width="380" height="23.1" fill="#C7A374"/><rect x="210" y="234.5" width="380" height="1.5" fill="#ffffff" opacity="0.25"/><rect x="210" y="262.7" width="380" height="23.1" fill="#D8B98C"/><rect x="210" y="262.7" width="380" height="1.5" fill="#ffffff" opacity="0.25"/><rect x="210" y="290.9" width="380" height="23.1" fill="#C7A374"/><rect x="210" y="290.9" width="380" height="1.5" fill="#ffffff" opacity="0.25"/><rect x="210" y="319.1" width="380" height="23.1" fill="#D8B98C"/><rect x="210" y="319.1" width="380" height="1.5" fill="#ffffff" opacity="0.25"/><rect x="210" y="347.3" width="380" height="23.1" fill="#C7A374"/><rect x="210" y="347.3" width="380" height="1.5" fill="#ffffff" opacity="0.25"/><rect x="210" y="375.5" width="380" height="23.1" fill="#D8B98C"/><rect x="210" y="375.5" width="380" height="1.5" fill="#ffffff" opacity="0.25"/><rect x="210" y="403.6" width="380" height="23.1" fill="#C7A374"/><rect x="210" y="403.6" width="380" height="1.5" fill="#ffffff" opacity="0.25"/><rect x="210" y="431.8" width="380" height="23.1" fill="#D8B98C"/><rect x="210" y="431.8" width="380" height="1.5" fill="#ffffff" opacity="0.25"/><rect x="210" y="460.0" width="380" height="23.1" fill="#C7A374"/><rect x="210" y="460.0" width="380" height="1.5" fill="#ffffff" opacity="0.25"/><rect x="210" y="488.2" width="380" height="23.1" fill="#D8B98C"/><rect x="210" y="488.2" width="380" height="1.5" fill="#ffffff" opacity="0.25"/><rect x="210" y="516.4" width="380" height="23.1" fill="#C7A374"/><rect x="210" y="516.4" width="380" height="1.5" fill="#ffffff" opacity="0.25"/><rect x="210" y="544.5" width="380" height="23.1" fill="#D8B98C"/><rect x="210" y="544.5" width="380" height="1.5" fill="#ffffff" opacity="0.25"/><rect x="210" y="572.7" width="380" height="23.1" fill="#C7A374"/><rect x="210" y="572.7" width="380" height="1.5" fill="#ffffff" opacity="0.25"/><rect x="210" y="600.9" width="380" height="23.1" fill="#D8B98C"/><rect x="210" y="600.9" width="380" height="1.5" fill="#ffffff" opacity="0.25"/><rect x="210" y="629.1" width="380" height="23.1" fill="#C7A374"/><rect x="210" y="629.1" width="380" height="1.5" fill="#ffffff" opacity="0.25"/><rect x="210" y="657.3" width="380" height="23.1" fill="#D8B98C"/><rect x="210" y="657.3" width="380" height="1.5" fill="#ffffff" opacity="0.25"/><rect x="210" y="685.5" width="380" height="23.1" fill="#C7A374"/><rect x="210" y="685.5" width="380" height="1.5" fill="#ffffff" opacity="0.25"/><rect x="210" y="713.6" width="380" height="23.1" fill="#D8B98C"/><rect x="210" y="713.6" width="380" height="1.5" fill="#ffffff" opacity="0.25"/><rect x="210" y="741.8" width="380" height="23.1" fill="#C7A374"/><rect x="210" y="741.8" width="380" height="1.5" fill="#ffffff" opacity="0.25"/><line x1="305.0" y1="150" x2="305.0" y2="770" stroke="#00000018" stroke-width="1.5"/><line x1="495.0" y1="150" x2="495.0" y2="770" stroke="#00000018" stroke-width="1.5"/><rect x="210" y="150" width="380" height="14" fill="#B8935A"/></svg>