<svg xmlns="http://www.w3.org/2000/svg" viewBox="0 0 800 1000" width="800" height="1000">
<defs>
  <linearGradient id="wall" x1="0" y1="0" x2="0" y2="1">
    <stop offset="0" stop-color="#EDE7DC"/><stop offset="1" stop-color="#E3DBCC"/>
  </linearGradient>
  <linearGradient id="sky" x1="0" y1="0" x2="0" y2="1">
    <stop offset="0" stop-color="#CFE3EE"/><stop offset="1" stop-color="#EAF1F3"/>
  </linearGradient>
  <linearGradient id="alu" x1="0" y1="0" x2="0" y2="1">
    <stop offset="0" stop-color="#E8ECEF"/><stop offset="0.5" stop-color="#C9D0D6"/><stop offset="1" stop-color="#B4BCC3"/>
  </linearGradient>
  <linearGradient id="gold" x1="0" y1="0" x2="1" y2="1">
    <stop offset="0" stop-color="#CFA968"/><stop offset="1" stop-color="#B8935A"/>
  </linearGradient>
  <filter id="soft" x="-20%" y="-20%" width="140%" height="140%">
    <feDropShadow dx="0" dy="6" stdDeviation="10" flood-color="#000" flood-opacity="0.12"/>
  </filter>
</defs>
<rect width="800" height="1000" fill="url(#wall)"/>
<rect x="0" y="850" width="800" height="150" fill="#C9B79A"/>
<rect x="0" y="850" width="800" height="4" fill="#B8A585"/><rect x="192" y="132" width="416" height="656" rx="6" fill="#F7F3EC" filter="url(#soft)"/><rect x="192" y="132" width="416" height="656" rx="6" fill="none" stroke="#D8CEBD" stroke-width="2"/><rect x="210" y="150" width="380" height="620" fill="url(#sky)"/><circle cx="483.59999999999997" cy="323.6" r="38.0" fill="#FBF3DE" opacity="0.7"/><rect x="210" y="571.6" width="380" height="198.4" fill="#D5E0D2" opacity="0.5"/><rect x="210" y="150.0" width="380" height="22.1" fill="#D8B98C"/><rect x="210" y="150.0" width="380" height="1.5" fill="#ffffff" opacity="0.3"/><rect x="210" y="177.0" width="380" height="22.1" fill="#C7A374"/><rect x="210" y="177.0" width="380" height="1.5" fill="#ffffff" opacity="0.3"/><rect x="210" y="204.0" width="380" height="22.1" fill="#D8B98C"/><rect x="210" y="204.0" width="380" height="1.5" fill="#ffffff" opacity="0.3"/><rect x="210" y="231.0" width="380" height="22.1" fill="#C7A374"/><rect x="210" y="231.0" width="380" height="1.5" fill="#ffffff" opacity="0.3"/><rect x="210" y="258.0" width="380" height="22.1" fill="#D8B98C"/><rect x="210" y="258.0" width="380" height="1.5" fill="#ffffff" opacity="0.3"/><rect x="210" y="284.9" width="380" height="22.1" fill="#C7A374"/><rect x="210" y="284.9" width="380" height="1.5" fill="#ffffff" opacity="0.3"/><rect x="210" y="311.9" width="380" height="22.1" fill="#D8B98C"/><rect x="210" y="311.9" width="380" height="1.5" fill="#ffffff" opacity="0.3"/><rect x="210" y="338.9" width="380" height="22.1" fill="#C7A374"/><rect x="210" y="338.9" width="380" height="1.5" fill="#ffffff" opacity="0.3"/><rect x="210" y="365.9" width="380" height="22.1" fill="#D8B98C"/><rect x="210" y="365.9" width="380" height="1.5" fill="#ffffff" opacity="0.3"/><rect x="210" y="392.9" width="380" height="22.1" fill="#C7A374"/><rect x="210" y="392.9" width="380" height="1.5" fill="#ffffff" opacity="0.3"/><rect x="210" y="419.9" width="380" height="22.1" fill="#D8B98C"/><rect x="210" y="419.9" width="380" height="1.5" fill="#ffffff" opacity="0.3"/><rect x="210" y="446.9" width="380" height="22.1" fill="#C7A374"/><rect x="210" y="446.9" width="380" height="1.5" fill="#ffffff" opacity="0.3"/><rect x="210" y="473.9" width="380" height="22.1" fill="#D8B98C"/><rect x="210" y="473.9" width="380" height="1.5" fill="#ffffff" opacity="0.3"/><rect x="210" y="500.8" width="380" height="22.1" fill="#C7A374"/><rect x="210" y="500.8" width="380" height="1.5" fill="#ffffff" opacity="0.3"/><rect x="210" y="527.8" width="380" height="22.1" fill="#D8B98C"/><rect x="210" y="527.8" width="380" height="1.5" fill="#ffffff" opacity="0.3"/><rect x="210" y="554.8" width="380" height="22.1" fill="#C7A374"/><rect x="210" y="554.8" width="380" height="1.5" fill="#ffffff" opacity="0.3"/><rect x="210" y="581.8" width="380" height="22.1" fill="#D8B98C"/><rect x="210" y="581.8" width="380" height="1.5" fill="#ffffff" opacity="0.3"/><rect x="210" y="608.8" width="380" height="11" fill="#B8935A"/><rect x="210" y="150" width="380" height="14" fill="#B8935A"/><line x1="226" y1="166" x2="226" y2="406" stroke="#8A8175" stroke-width="2.4"/><rect x="222" y="406" width="8" height="16" rx="3" fill="#8A8175"/><line x1="550" y1="166" x2="550" y2="426" stroke="#8A8175" stroke-width="2.4"/><rect x="546" y="426" width="8" height="16" rx="3" fill="#8A8175"/><rect x="573.5" y="166" width="5" height="200" rx="2.5" fill="#C7A374" stroke="#00000022" stroke-width="0.8"/><circle cx="576" cy="370" r="4.5" fill="#C7A374" stroke="#00000022" stroke-width="0.8"/></svg>